<?xml version="1.0" encoding="UTF-8"?><!DOCTYPE svg PUBLIC "-//W3C//DTD SVG 1.1//EN" "http://www.w3.org/Graphics/SVG/1.1/DTD/svg11.dtd"><svg xmlns="http://www.w3.org/2000/svg"><symbol id="ico-back-arrow" viewBox="0 0 7 12">
    <title>
        back-arrow
    </title>
    <path d="M6.842 2.73L3.286 6.286l3.556 3.556a.412.412 0 0 1 .127.3.412.412 0 0 1-.127.302L5.73 11.556a.412.412 0 0 1-.301.127.412.412 0 0 1-.302-.127L.158 6.587a.412.412 0 0 1-.127-.301c0-.116.043-.217.127-.302l4.97-4.968a.412.412 0 0 1 .3-.128c.117 0 .217.043.302.128l1.112 1.111a.412.412 0 0 1 .127.302.412.412 0 0 1-.127.3z" fill-rule="evenodd"/>
</symbol><symbol id="ico-check" viewBox="0 0 14 11">
    <title>
        check
    </title>
    <path d="M4.75 8.832L12.688.876l1.062 1.062-9 9L.574 6.762 1.618 5.7z" fill-rule="evenodd"/>
</symbol><symbol id="ico-collapse-arrow" viewBox="0 0 8 10">
    <title>
        collapse-arrow
    </title>
    <path d="M8 5l-8 5V0z" fill-rule="evenodd"/>
</symbol><symbol id="ico-logo-small" viewBox="0 0 17 17">
    <title>
        logo-small
    </title>
    <path d="M9.599 14.794a6.258 6.258 0 0 1 5.195-4.624v4.624H9.6zM2.216 2.195h12.578v5.752c-3.742.376-6.769 3.203-7.451 6.847H2.206l.01-12.599zM0 17h17V0H0v17z" fill-rule="evenodd"/>
</symbol><symbol id="ico-next-arrow" viewBox="0 0 20 21">
    <title>
        next-arrow
    </title>
    <path d="M10 .25c1.38 0 2.679.26 3.896.781A10.035 10.035 0 0 1 17.08 3.17a10.035 10.035 0 0 1 2.139 3.184A9.801 9.801 0 0 1 20 10.25c0 1.38-.26 2.679-.781 3.896a10.035 10.035 0 0 1-2.139 3.184 10.035 10.035 0 0 1-3.184 2.139A9.801 9.801 0 0 1 10 20.25c-1.38 0-2.679-.26-3.896-.781A10.035 10.035 0 0 1 2.92 17.33 10.035 10.035 0 0 1 .78 14.146 9.801 9.801 0 0 1 0 10.25c0-1.38.26-2.679.781-3.896A10.035 10.035 0 0 1 2.92 3.17 10.035 10.035 0 0 1 6.104 1.03 9.801 9.801 0 0 1 10 .25zm0 18.77a8.44 8.44 0 0 0 3.408-.694 8.83 8.83 0 0 0 2.774-1.885 9.035 9.035 0 0 0 1.875-2.783 8.44 8.44 0 0 0 .693-3.408 8.44 8.44 0 0 0-.693-3.408 8.914 8.914 0 0 0-1.875-2.774 8.914 8.914 0 0 0-2.774-1.875A8.44 8.44 0 0 0 10 1.5a8.44 8.44 0 0 0-3.408.693 8.914 8.914 0 0 0-2.774 1.875 8.914 8.914 0 0 0-1.875 2.774 8.44 8.44 0 0 0-.693 3.408c0 1.21.231 2.347.693 3.408a9.035 9.035 0 0 0 1.875 2.783 8.83 8.83 0 0 0 2.774 1.885A8.44 8.44 0 0 0 10 19.02zm.39-12.54a.617.617 0 0 1 .898 0l3.692 3.79-3.69 3.789a.89.89 0 0 1-.216.127.605.605 0 0 1-.234.048.605.605 0 0 1-.235-.048.89.89 0 0 1-.214-.127.652.652 0 0 1-.176-.45c0-.169.058-.319.176-.449l2.304-2.285h-7.07A.617.617 0 0 1 5 10.25c0-.182.059-.332.176-.45a.608.608 0 0 1 .449-.175h7.031l-2.265-2.266a.596.596 0 0 1-.176-.44c0-.175.058-.321.176-.439z" fill-rule="evenodd"/>
</symbol><symbol id="ico-next-arrow2" viewBox="0 0 17 19">
    <title>
        next-arrow2
    </title>
    <path d="M16.429 9.571c0 .402-.138.74-.413 1.016L8.75 17.853a1.43 1.43 0 0 1-1.016.413c-.38 0-.714-.138-1.004-.413l-.837-.837A1.386 1.386 0 0 1 5.469 16c0-.394.141-.733.424-1.016l3.27-3.27H1.306a1.19 1.19 0 0 1-.943-.418A1.49 1.49 0 0 1 0 10.286V8.857c0-.394.12-.73.363-1.01a1.19 1.19 0 0 1 .943-.418h7.857l-3.27-3.282a1.326 1.326 0 0 1-.424-1.004c0-.402.141-.737.424-1.005l.837-.837A1.373 1.373 0 0 1 7.734.877c.395 0 .733.142 1.016.424l7.266 7.266c.275.26.413.595.413 1.004z" fill-rule="evenodd"/>
</symbol><symbol id="ico-question-circle" viewBox="0 0 18 18">
    <title>
        question-circle
    </title>
    <path d="M10.857 14.214v-2.143a.348.348 0 0 0-.1-.256.348.348 0 0 0-.257-.1H8.357a.348.348 0 0 0-.257.1.348.348 0 0 0-.1.256v2.143c0 .104.033.19.1.257s.153.1.257.1H10.5c.104 0 .19-.033.257-.1a.348.348 0 0 0 .1-.257zm2.857-7.5c0-.654-.206-1.26-.62-1.819A4.227 4.227 0 0 0 11.55 3.6a4.239 4.239 0 0 0-1.897-.457c-1.808 0-3.188.792-4.14 2.377-.112.179-.083.335.088.469l1.474 1.116a.315.315 0 0 0 .212.067.33.33 0 0 0 .279-.134c.394-.506.714-.848.96-1.027.253-.178.572-.268.96-.268.357 0 .675.097.954.29.279.194.418.413.418.659 0 .283-.074.51-.223.68-.149.172-.402.34-.759.503-.469.208-.898.53-1.29.965-.39.436-.585.903-.585 1.401v.402c0 .104.033.19.1.257s.153.1.257.1H10.5c.104 0 .19-.033.257-.1a.348.348 0 0 0 .1-.257c0-.142.08-.326.24-.553.16-.227.363-.41.608-.552.238-.134.42-.24.547-.318a4.7 4.7 0 0 0 .514-.39c.215-.183.38-.362.496-.536.116-.175.22-.4.313-.676a2.81 2.81 0 0 0 .14-.904zM18 8.857c0 1.555-.383 2.99-1.15 4.303a8.533 8.533 0 0 1-3.119 3.119 8.385 8.385 0 0 1-4.302 1.15 8.385 8.385 0 0 1-4.303-1.15 8.533 8.533 0 0 1-3.12-3.12A8.385 8.385 0 0 1 .858 8.858c0-1.555.383-2.99 1.15-4.302a8.533 8.533 0 0 1 3.12-3.12A8.385 8.385 0 0 1 9.428.285c1.555 0 2.989.384 4.302 1.15a8.533 8.533 0 0 1 3.12 3.12A8.385 8.385 0 0 1 18 8.857z" fill-rule="evenodd"/>
</symbol><symbol id="ico-quote" viewBox="0 0 32 27">
    <title>
        quote
    </title>
    <path d="M19.11 27V14.529L25.814 0h5.027l-3.48 13.5H32V27H19.11zM0 27V14.529L6.702 0h5.156L8.25 13.5h4.64V27H0z" fill-rule="evenodd"/>
</symbol><symbol id="ico-right-arrow" viewBox="0 0 7 12">
    <title>
        right-arrow
    </title>
    <path d="M.158 9.842l3.556-3.556L.158 2.73a.412.412 0 0 1-.127-.301c0-.117.043-.217.127-.302L1.27 1.016a.412.412 0 0 1 .301-.128c.117 0 .217.043.302.128l4.969 4.968a.412.412 0 0 1 .127.302.412.412 0 0 1-.127.301l-4.97 4.969a.412.412 0 0 1-.3.127.412.412 0 0 1-.302-.127L.158 10.444a.412.412 0 0 1-.127-.301c0-.116.043-.217.127-.301z" fill-rule="evenodd"/>
</symbol><symbol id="ico-select-arrow" viewBox="0 0 10 5">
    <path d="M5 5L0 0h10z"/>
</symbol><symbol id="ico-sh-email" viewBox="0 0 12 10">
    <path fill-rule="evenodd" d="M11.143 8.786V3.643c-.143.16-.297.308-.462.442a93.81 93.81 0 0 0-2.853 2.263 13.17 13.17 0 0 1-.556.449 3.093 3.093 0 0 1-.579.325 1.68 1.68 0 0 1-.686.164h-.014a1.68 1.68 0 0 1-.686-.164 3.093 3.093 0 0 1-.58-.325 13.163 13.163 0 0 1-.555-.449 93.81 93.81 0 0 0-2.853-2.263 3.924 3.924 0 0 1-.462-.442v5.143c0 .058.021.108.064.15A.206.206 0 0 0 1.07 9h9.858a.206.206 0 0 0 .15-.064.206.206 0 0 0 .064-.15zm0-7.038v-.164a1.6 1.6 0 0 0-.003-.087.183.183 0 0 0-.02-.084 3.918 3.918 0 0 1-.037-.06.123.123 0 0 0-.06-.05.242.242 0 0 0-.094-.017H1.07a.206.206 0 0 0-.15.063.206.206 0 0 0-.064.151c0 .75.328 1.384.985 1.902.861.678 1.756 1.386 2.685 2.123l.234.197a5.803 5.803 0 0 0 .606.462c.123.083.236.144.338.184.103.04.199.06.288.06h.014c.089 0 .185-.02.288-.06.102-.04.215-.101.338-.184.123-.082.222-.153.298-.21a11.5 11.5 0 0 0 .308-.252l.234-.197c.929-.737 1.824-1.445 2.685-2.123.242-.192.466-.45.673-.774.208-.323.312-.617.312-.88zM12 1.5v7.286c0 .294-.105.547-.315.756-.21.21-.462.315-.756.315H1.07c-.294 0-.546-.105-.756-.315A1.032 1.032 0 0 1 0 8.786V1.5C0 1.205.105.953.315.743.525.533.777.43 1.07.43h9.858c.294 0 .546.104.756.314.21.21.315.462.315.757z"/>
</symbol><symbol id="ico-sh-id" viewBox="0 0 14 11">
    <title>
        sh-id
    </title>
    <path d="M6 7.83c0 .246-.07.455-.21.626a.634.634 0 0 1-.507.258H2.431a.634.634 0 0 1-.506-.258.957.957 0 0 1-.21-.626c0-.24.016-.465.05-.673.033-.207.088-.408.164-.602a1.01 1.01 0 0 1 .341-.459.89.89 0 0 1 .542-.167c.286.285.634.428 1.045.428.41 0 .76-.143 1.045-.428.21 0 .39.055.542.167.152.112.266.264.342.459.076.194.13.395.164.602.033.208.05.432.05.673zM4.768 3.946c.25.25.375.554.375.911s-.125.66-.375.91a1.24 1.24 0 0 1-.91.376 1.24 1.24 0 0 1-.912-.375 1.24 1.24 0 0 1-.375-.91c0-.358.125-.662.375-.912s.554-.375.911-.375.66.125.91.375zM12 7.643v.428c0 .063-.02.114-.06.154a.209.209 0 0 1-.154.06H7.07a.209.209 0 0 1-.154-.06.209.209 0 0 1-.06-.154v-.428c0-.063.02-.114.06-.154.04-.04.092-.06.154-.06h4.715c.062 0 .114.02.154.06.04.04.06.091.06.154zM9.429 5.929v.428c0 .063-.02.114-.06.154a.209.209 0 0 1-.155.06H7.071a.209.209 0 0 1-.154-.06.209.209 0 0 1-.06-.154V5.93c0-.063.02-.114.06-.154.04-.04.092-.06.154-.06h2.143c.063 0 .114.02.154.06.04.04.06.091.06.154zm2.571 0v.428c0 .063-.02.114-.06.154a.209.209 0 0 1-.154.06H10.5a.209.209 0 0 1-.154-.06.209.209 0 0 1-.06-.154V5.93c0-.063.02-.114.06-.154.04-.04.091-.06.154-.06h1.286c.062 0 .114.02.154.06.04.04.06.091.06.154zm0-1.715v.429c0 .062-.02.114-.06.154a.209.209 0 0 1-.154.06H7.07a.209.209 0 0 1-.154-.06.209.209 0 0 1-.06-.154v-.429c0-.062.02-.114.06-.154.04-.04.092-.06.154-.06h4.715c.062 0 .114.02.154.06.04.04.06.092.06.154zm.857 5.572v-7.5h-12v7.5c0 .058.021.108.064.15a.206.206 0 0 0 .15.064h11.572a.206.206 0 0 0 .15-.064.206.206 0 0 0 .064-.15zm.857-8.143v8.143c0 .294-.105.547-.314.756-.21.21-.462.315-.757.315H1.07c-.294 0-.546-.105-.756-.315A1.032 1.032 0 0 1 0 9.786V1.643c0-.295.105-.547.315-.757.21-.21.462-.315.756-.315h11.572c.295 0 .547.105.757.315.21.21.314.462.314.757z" fill-rule="evenodd"/>
</symbol><symbol id="ico-sh-name" viewBox="0 0 12 11">
    <title>
        sh-name
    </title>
    <path d="M4.855 3.458L3.717 6.47c.147 0 .452.004.914.013.462.01.82.014 1.074.014.085 0 .212-.005.382-.014-.388-1.13-.8-2.138-1.232-3.026zM0 10.858l.013-.53c.103-.031.228-.059.375-.084a9.82 9.82 0 0 0 .382-.07c.107-.022.218-.055.332-.097a.802.802 0 0 0 .298-.194.989.989 0 0 0 .207-.338L3.194 5.42 5.07.57h.857c.036.063.06.11.074.141l1.373 3.214c.147.349.384.923.71 1.725.325.801.58 1.414.763 1.838.067.152.196.474.388.967.192.494.353.87.483 1.129.089.2.167.328.234.382.085.066.281.132.59.197.307.065.495.11.562.137.026.17.04.297.04.382l-.003.09a1.586 1.586 0 0 0-.004.084c-.281 0-.705-.018-1.272-.053a22.222 22.222 0 0 0-1.28-.054c-.338 0-.818.016-1.439.047-.62.031-1.018.049-1.192.053 0-.192.01-.366.027-.522l.877-.187.084-.017.104-.024c.018-.004.05-.014.097-.03a.452.452 0 0 0 .174-.097.184.184 0 0 0 .06-.073.242.242 0 0 0 .017-.094c0-.072-.07-.287-.208-.646-.138-.36-.299-.756-.482-1.189a63.936 63.936 0 0 1-.281-.67l-3.014-.013c-.116.259-.286.695-.512 1.31-.225.613-.338.976-.338 1.087 0 .098.031.182.094.251.062.07.16.124.291.164.132.04.24.07.325.09.085.02.212.04.382.058.17.018.26.027.274.027.005.084.007.214.007.388 0 .04-.005.1-.014.18-.259 0-.648-.022-1.168-.066a14.98 14.98 0 0 0-1.169-.067.967.967 0 0 0-.177.027 7.394 7.394 0 0 1-1.403.12z" fill-rule="evenodd"/>
</symbol><symbol id="ico-sh-person" viewBox="0 0 9 11">
    <title>
        sh-person
    </title>
    <path d="M8.571 9.083c0 .486-.14.904-.418 1.252-.28.348-.615.522-1.008.522H1.426c-.393 0-.728-.174-1.007-.522C.139 9.987 0 9.569 0 9.083c0-.38.019-.738.057-1.075.038-.337.108-.677.21-1.018.104-.342.234-.634.393-.877.158-.244.368-.442.63-.596a1.74 1.74 0 0 1 .9-.231 2.894 2.894 0 0 0 2.096.857c.812 0 1.51-.286 2.096-.857.339 0 .64.077.9.23.262.155.471.353.63.597.158.243.289.535.392.877.102.341.173.68.21 1.018.038.337.057.695.057 1.075zm-2.47-7.755c.504.5.756 1.105.756 1.815s-.251 1.316-.753 1.818a2.477 2.477 0 0 1-1.818.753c-.71 0-1.316-.25-1.818-.753a2.477 2.477 0 0 1-.754-1.818c0-.71.251-1.316.754-1.818A2.477 2.477 0 0 1 4.286.57c.71 0 1.314.253 1.814.757z" fill-rule="evenodd"/>
</symbol><symbol id="ico-sh-phone" viewBox="0 0 10 10">
    <path fill-rule="evenodd" d="M9.429 8.018c0 .12-.023.278-.067.472a2.66 2.66 0 0 1-.141.459c-.094.223-.366.46-.817.71-.42.227-.835.341-1.246.341-.12 0-.238-.008-.354-.023a2.751 2.751 0 0 1-.385-.084 5.742 5.742 0 0 1-.315-.097c-.07-.025-.193-.07-.372-.138a14.269 14.269 0 0 0-.328-.12 6.065 6.065 0 0 1-1.172-.556c-.567-.353-1.156-.835-1.768-1.446-.611-.612-1.093-1.201-1.446-1.768a6.065 6.065 0 0 1-.556-1.172c-.013-.04-.054-.15-.12-.328a26.261 26.261 0 0 1-.138-.372 5.745 5.745 0 0 1-.097-.315 2.75 2.75 0 0 1-.084-.385A2.657 2.657 0 0 1 0 2.842c0-.411.114-.826.342-1.246.25-.45.486-.723.71-.817a2.66 2.66 0 0 1 .458-.14A2.21 2.21 0 0 1 1.982.57c.063 0 .11.007.14.02.081.027.2.197.356.51.049.084.116.205.2.361.085.156.164.298.235.425.071.128.14.247.208.359l.117.167c.064.094.112.173.144.238a.437.437 0 0 1 .047.19c0 .09-.064.201-.191.335a3.264 3.264 0 0 1-.415.369c-.15.111-.288.23-.416.355-.127.125-.19.227-.19.308 0 .04.01.09.033.15.022.06.041.106.057.138.016.03.047.084.094.16l.077.127a6.986 6.986 0 0 0 1.165 1.574c.437.438.962.826 1.574 1.165l.127.077c.076.047.13.078.16.094.032.016.077.035.138.057.06.022.11.033.15.033.08 0 .183-.063.308-.19.125-.128.244-.266.355-.416.112-.15.235-.287.369-.415.134-.127.245-.19.334-.19.063 0 .127.015.191.046.065.032.144.08.238.144l.167.117c.112.067.231.137.359.208.127.071.269.15.425.234.156.085.277.152.362.201.312.157.482.275.508.355a.36.36 0 0 1 .02.14z"/>
</symbol><symbol id="ico-signup-sucess" viewBox="0 0 153 153">
    <title>
        signup-sucess
    </title>
    <g fill-rule="nonzero">
        <path d="M147.5 76.5c0-39.212-31.788-71-71-71s-71 31.788-71 71 31.788 71 71 71 71-31.788 71-71zm5 0c0 41.974-34.027 76-76 76s-76-34.027-76-76 34.027-76 76-76 76 34.026 76 76z"/>
        <path d="M111.236 50.228a2.5 2.5 0 0 1 3.528 3.544l-50.227 50a2.5 2.5 0 0 1-3.527 0L37.236 80.105a2.5 2.5 0 0 1 3.528-3.544l22.01 21.911 48.462-48.244z"/>
    </g>
</symbol></svg>