<?xml version="1.0" encoding="UTF-8"?><!DOCTYPE svg PUBLIC "-//W3C//DTD SVG 1.1//EN" "http://www.w3.org/Graphics/SVG/1.1/DTD/svg11.dtd"><svg xmlns="http://www.w3.org/2000/svg"><symbol id="ico-back-arrow" viewBox="0 0 7 12">
    <title>
        back-arrow
    </title>
    <path d="M6.842 2.73L3.286 6.286l3.556 3.556a.412.412 0 0 1 .127.3.412.412 0 0 1-.127.302L5.73 11.556a.412.412 0 0 1-.301.127.412.412 0 0 1-.302-.127L.158 6.587a.412.412 0 0 1-.127-.301c0-.116.043-.217.127-.302l4.97-4.968a.412.412 0 0 1 .3-.128c.117 0 .217.043.302.128l1.112 1.111a.412.412 0 0 1 .127.302.412.412 0 0 1-.127.3z" fill-rule="evenodd"/>
</symbol><symbol id="ico-check" viewBox="0 0 14 11">
    <title>
        check
    </title>
    <path d="M4.75 8.832L12.688.876l1.062 1.062-9 9L.574 6.762 1.618 5.7z" fill-rule="evenodd"/>
</symbol><symbol id="ico-logo-small" viewBox="0 0 17 17">
    <title>
        logo-small
    </title>
    <path d="M9.599 14.794a6.258 6.258 0 0 1 5.195-4.624v4.624H9.6zM2.216 2.195h12.578v5.752c-3.742.376-6.769 3.203-7.451 6.847H2.206l.01-12.599zM0 17h17V0H0v17z" fill-rule="evenodd"/>
</symbol><symbol id="ico-next-arrow" viewBox="0 0 20 21">
    <title>
        next-arrow
    </title>
    <path d="M10 .25c1.38 0 2.679.26 3.896.781A10.035 10.035 0 0 1 17.08 3.17a10.035 10.035 0 0 1 2.139 3.184A9.801 9.801 0 0 1 20 10.25c0 1.38-.26 2.679-.781 3.896a10.035 10.035 0 0 1-2.139 3.184 10.035 10.035 0 0 1-3.184 2.139A9.801 9.801 0 0 1 10 20.25c-1.38 0-2.679-.26-3.896-.781A10.035 10.035 0 0 1 2.92 17.33 10.035 10.035 0 0 1 .78 14.146 9.801 9.801 0 0 1 0 10.25c0-1.38.26-2.679.781-3.896A10.035 10.035 0 0 1 2.92 3.17 10.035 10.035 0 0 1 6.104 1.03 9.801 9.801 0 0 1 10 .25zm0 18.77a8.44 8.44 0 0 0 3.408-.694 8.83 8.83 0 0 0 2.774-1.885 9.035 9.035 0 0 0 1.875-2.783 8.44 8.44 0 0 0 .693-3.408 8.44 8.44 0 0 0-.693-3.408 8.914 8.914 0 0 0-1.875-2.774 8.914 8.914 0 0 0-2.774-1.875A8.44 8.44 0 0 0 10 1.5a8.44 8.44 0 0 0-3.408.693 8.914 8.914 0 0 0-2.774 1.875 8.914 8.914 0 0 0-1.875 2.774 8.44 8.44 0 0 0-.693 3.408c0 1.21.231 2.347.693 3.408a9.035 9.035 0 0 0 1.875 2.783 8.83 8.83 0 0 0 2.774 1.885A8.44 8.44 0 0 0 10 19.02zm.39-12.54a.617.617 0 0 1 .898 0l3.692 3.79-3.69 3.789a.89.89 0 0 1-.216.127.605.605 0 0 1-.234.048.605.605 0 0 1-.235-.048.89.89 0 0 1-.214-.127.652.652 0 0 1-.176-.45c0-.169.058-.319.176-.449l2.304-2.285h-7.07A.617.617 0 0 1 5 10.25c0-.182.059-.332.176-.45a.608.608 0 0 1 .449-.175h7.031l-2.265-2.266a.596.596 0 0 1-.176-.44c0-.175.058-.321.176-.439z" fill-rule="evenodd"/>
</symbol><symbol id="ico-quote" viewBox="0 0 32 27">
    <title>
        quote
    </title>
    <path d="M19.11 27V14.529L25.814 0h5.027l-3.48 13.5H32V27H19.11zM0 27V14.529L6.702 0h5.156L8.25 13.5h4.64V27H0z" fill-rule="evenodd"/>
</symbol><symbol id="ico-select-arrow" viewBox="0 0 10 5">
    <title>
        select-arrow
    </title>
    <path d="M5 5L0 0h10z" fill-rule="evenodd"/>
</symbol></svg>