<svg xmlns="http://www.w3.org/2000/svg" width="12" height="10" viewBox="0 0 12 10">
    <path fill="#646C77" fill-rule="evenodd" d="M11.143 8.786V3.643c-.143.16-.297.308-.462.442a93.81 93.81 0 0 0-2.853 2.263c-.228.192-.413.342-.556.449a3.093 3.093 0 0 1-.579.325 1.68 1.68 0 0 1-.686.164h-.014a1.68 1.68 0 0 1-.686-.164 3.093 3.093 0 0 1-.58-.325 13.163 13.163 0 0 1-.555-.449 93.81 93.81 0 0 0-2.853-2.263 3.924 3.924 0 0 1-.462-.442v5.143c0 .058.021.108.064.15A.206.206 0 0 0 1.07 9h9.858a.206.206 0 0 0 .15-.064.206.206 0 0 0 .064-.15zm0-7.038v-.164a1.6 1.6 0 0 0-.003-.087.183.183 0 0 0-.02-.084 3.918 3.918 0 0 1-.037-.06.123.123 0 0 0-.06-.05.242.242 0 0 0-.094-.017H1.07a.206.206 0 0 0-.15.063.206.206 0 0 0-.064.151c0 .75.328 1.384.985 1.902.861.678 1.756 1.386 2.685 2.123l.234.197c.13.11.232.193.308.251.076.058.175.129.298.211.123.083.236.144.338.184.103.04.199.06.288.06h.014c.089 0 .185-.02.288-.06.102-.04.215-.101.338-.184.123-.082.222-.153.298-.21.076-.059.178-.143.308-.252l.234-.197c.929-.737 1.824-1.445 2.685-2.123.242-.192.466-.45.673-.774.208-.323.312-.617.312-.88zM12 1.5v7.286c0 .294-.105.547-.315.756-.21.21-.462.315-.756.315H1.07c-.294 0-.546-.105-.756-.315A1.032 1.032 0 0 1 0 8.786V1.5C0 1.205.105.953.315.743.525.533.777.43 1.07.43h9.858c.294 0 .546.104.756.314.21.21.315.462.315.757z"/>
</svg>
