<?xml version="1.0" encoding="UTF-8"?>
<svg width="14px" height="11px" viewBox="0 0 14 11" version="1.1" xmlns="http://www.w3.org/2000/svg" xmlns:xlink="http://www.w3.org/1999/xlink">
    <!-- Generator: Sketch 52.3 (67297) - http://www.bohemiancoding.com/sketch -->
    <title>sh-id</title>
    <desc>Created with Sketch.</desc>
    <g id="7th-Draft" stroke="none" stroke-width="1" fill="none" fill-rule="evenodd">
        <g id="Company-list" transform="translate(-363.000000, -132.000000)" fill="#646C77">
            <g id="Group-3" transform="translate(363.000000, 123.000000)">
                <path d="M6,16.8303571 C6,17.0758941 5.9296882,17.2845974 5.7890625,17.4564732 C5.6484368,17.6283491 5.4799117,17.7142857 5.28348214,17.7142857 L2.43080357,17.7142857 C2.23437402,17.7142857 2.06584892,17.6283491 1.92522321,17.4564732 C1.78459751,17.2845974 1.71428571,17.0758941 1.71428571,16.8303571 C1.71428571,16.5892845 1.73102662,16.3649564 1.76450893,16.1573661 C1.79799124,15.9497757 1.85267819,15.7488849 1.92857143,15.5546875 C2.00446467,15.3604901 2.11830281,15.2075898 2.27008929,15.0959821 C2.42187576,14.9843744 2.60267752,14.9285714 2.8125,14.9285714 C3.09821571,15.2142871 3.44642652,15.3571429 3.85714286,15.3571429 C4.2678592,15.3571429 4.61607,15.2142871 4.90178571,14.9285714 C5.11160819,14.9285714 5.29240996,14.9843744 5.44419643,15.0959821 C5.5959829,15.2075898 5.70982105,15.3604901 5.78571429,15.5546875 C5.86160752,15.7488849 5.91629448,15.9497757 5.94977679,16.1573661 C5.9832591,16.3649564 6,16.5892845 6,16.8303571 Z M4.76785714,12.9464286 C5.01785839,13.1964298 5.14285714,13.4999982 5.14285714,13.8571429 C5.14285714,14.2142875 5.01785839,14.5178559 4.76785714,14.7678571 C4.51785589,15.0178584 4.2142875,15.1428571 3.85714286,15.1428571 C3.49999821,15.1428571 3.19642982,15.0178584 2.94642857,14.7678571 C2.69642732,14.5178559 2.57142857,14.2142875 2.57142857,13.8571429 C2.57142857,13.4999982 2.69642732,13.1964298 2.94642857,12.9464286 C3.19642982,12.6964273 3.49999821,12.5714286 3.85714286,12.5714286 C4.2142875,12.5714286 4.51785589,12.6964273 4.76785714,12.9464286 Z M12,16.6428571 L12,17.0714286 C12,17.1339289 11.9799109,17.1852677 11.9397321,17.2254464 C11.8995534,17.2656252 11.8482146,17.2857143 11.7857143,17.2857143 L7.07142857,17.2857143 C7.00892826,17.2857143 6.95758949,17.2656252 6.91741071,17.2254464 C6.87723194,17.1852677 6.85714286,17.1339289 6.85714286,17.0714286 L6.85714286,16.6428571 C6.85714286,16.5803568 6.87723194,16.5290181 6.91741071,16.4888393 C6.95758949,16.4486605 7.00892826,16.4285714 7.07142857,16.4285714 L11.7857143,16.4285714 C11.8482146,16.4285714 11.8995534,16.4486605 11.9397321,16.4888393 C11.9799109,16.5290181 12,16.5803568 12,16.6428571 Z M9.42857143,14.9285714 L9.42857143,15.3571429 C9.42857143,15.4196432 9.40848234,15.4709819 9.36830357,15.5111607 C9.3281248,15.5513395 9.27678603,15.5714286 9.21428571,15.5714286 L7.07142857,15.5714286 C7.00892826,15.5714286 6.95758949,15.5513395 6.91741071,15.5111607 C6.87723194,15.4709819 6.85714286,15.4196432 6.85714286,15.3571429 L6.85714286,14.9285714 C6.85714286,14.8660711 6.87723194,14.8147323 6.91741071,14.7745536 C6.95758949,14.7343748 7.00892826,14.7142857 7.07142857,14.7142857 L9.21428571,14.7142857 C9.27678603,14.7142857 9.3281248,14.7343748 9.36830357,14.7745536 C9.40848234,14.8147323 9.42857143,14.8660711 9.42857143,14.9285714 Z M12,14.9285714 L12,15.3571429 C12,15.4196432 11.9799109,15.4709819 11.9397321,15.5111607 C11.8995534,15.5513395 11.8482146,15.5714286 11.7857143,15.5714286 L10.5,15.5714286 C10.4374997,15.5714286 10.3861609,15.5513395 10.3459821,15.5111607 C10.3058034,15.4709819 10.2857143,15.4196432 10.2857143,15.3571429 L10.2857143,14.9285714 C10.2857143,14.8660711 10.3058034,14.8147323 10.3459821,14.7745536 C10.3861609,14.7343748 10.4374997,14.7142857 10.5,14.7142857 L11.7857143,14.7142857 C11.8482146,14.7142857 11.8995534,14.7343748 11.9397321,14.7745536 C11.9799109,14.8147323 12,14.8660711 12,14.9285714 Z M12,13.2142857 L12,13.6428571 C12,13.7053575 11.9799109,13.7566962 11.9397321,13.796875 C11.8995534,13.8370538 11.8482146,13.8571429 11.7857143,13.8571429 L7.07142857,13.8571429 C7.00892826,13.8571429 6.95758949,13.8370538 6.91741071,13.796875 C6.87723194,13.7566962 6.85714286,13.7053575 6.85714286,13.6428571 L6.85714286,13.2142857 C6.85714286,13.1517854 6.87723194,13.1004466 6.91741071,13.0602679 C6.95758949,13.0200891 7.00892826,13 7.07142857,13 L11.7857143,13 C11.8482146,13 11.8995534,13.0200891 11.9397321,13.0602679 C11.9799109,13.1004466 12,13.1517854 12,13.2142857 Z M12.8571429,18.7857143 L12.8571429,11.2857143 L0.857142857,11.2857143 L0.857142857,18.7857143 C0.857142857,18.8437503 0.878348002,18.893973 0.920758929,18.9363839 C0.963169855,18.9787949 1.01339257,19 1.07142857,19 L12.6428571,19 C12.7008931,19 12.7511159,18.9787949 12.7935268,18.9363839 C12.8359377,18.893973 12.8571429,18.8437503 12.8571429,18.7857143 Z M13.7142857,10.6428571 L13.7142857,18.7857143 C13.7142857,19.0803586 13.609376,19.3325882 13.3995536,19.5424107 C13.1897311,19.7522332 12.9375015,19.8571429 12.6428571,19.8571429 L1.07142857,19.8571429 C0.776784241,19.8571429 0.524554621,19.7522332 0.314732143,19.5424107 C0.104909665,19.3325882 0,19.0803586 0,18.7857143 L0,10.6428571 C0,10.3482128 0.104909665,10.0959832 0.314732143,9.88616071 C0.524554621,9.67633824 0.776784241,9.57142857 1.07142857,9.57142857 L12.6428571,9.57142857 C12.9375015,9.57142857 13.1897311,9.67633824 13.3995536,9.88616071 C13.609376,10.0959832 13.7142857,10.3482128 13.7142857,10.6428571 Z" id="sh-id"></path>
            </g>
        </g>
    </g>
</svg>