<?xml version="1.0" encoding="UTF-8"?>
<svg width="12px" height="11px" viewBox="0 0 12 11" version="1.1" xmlns="http://www.w3.org/2000/svg" xmlns:xlink="http://www.w3.org/1999/xlink">
    <!-- Generator: Sketch 52.3 (67297) - http://www.bohemiancoding.com/sketch -->
    <title>sh-name</title>
    <desc>Created with Sketch.</desc>
    <g id="7th-Draft" stroke="none" stroke-width="1" fill="none" fill-rule="evenodd">
        <g id="Company-list" transform="translate(-173.000000, -131.000000)" fill="#646C77">
            <g id="Group-2" transform="translate(173.000000, 123.000000)">
                <path d="M4.85491071,11.4575893 L3.71651786,14.4709821 C3.86384002,14.4709821 4.16852448,14.4754464 4.63058036,14.484375 C5.09263624,14.4933036 5.45089158,14.4977679 5.70535714,14.4977679 C5.790179,14.4977679 5.91740987,14.4933036 6.08705357,14.484375 C5.69865877,13.3549051 5.28794859,12.3459866 4.85491071,11.4575893 Z M0,18.8571429 L0.0133928571,18.328125 C0.116071942,18.2968748 0.241070692,18.2689733 0.388392857,18.2444196 C0.535715022,18.2198659 0.662945893,18.1964287 0.770089286,18.1741071 C0.877232679,18.1517856 0.987722645,18.1194199 1.1015625,18.0770089 C1.21540235,18.034598 1.31473172,17.9698665 1.39955357,17.8828125 C1.48437542,17.7957585 1.55357116,17.6830364 1.60714286,17.5446429 L3.19419643,13.4196429 L5.06919643,8.57142857 L5.92633929,8.57142857 C5.96205375,8.63392888 5.98660708,8.68080342 6,8.71205357 L7.37276786,11.9263393 C7.52009002,12.2745553 7.7566948,12.8493264 8.08258929,13.6506696 C8.40848377,14.4520129 8.66294551,15.06473 8.84598214,15.4888393 C8.91294676,15.6406258 9.04240975,15.9631672 9.234375,16.4564732 C9.42634025,16.9497793 9.58705292,17.3258916 9.71651786,17.5848214 C9.80580402,17.7857153 9.88392824,17.9129462 9.95089286,17.9665179 C10.0357147,18.0334825 10.2321413,18.09933 10.5401786,18.1640625 C10.8482158,18.228795 11.035714,18.2745534 11.1026786,18.3013393 C11.1294644,18.470983 11.1428571,18.5982139 11.1428571,18.6830357 C11.1428571,18.7053573 11.1417411,18.7354909 11.1395089,18.7734375 C11.1372768,18.8113841 11.1361607,18.8392856 11.1361607,18.8571429 C10.8549093,18.8571429 10.4308064,18.8392859 9.86383929,18.8035714 C9.29687217,18.767857 8.87053714,18.75 8.58482143,18.75 C8.24553402,18.75 7.7656281,18.7656248 7.14508929,18.796875 C6.52455047,18.8281252 6.12723301,18.8459821 5.953125,18.8504464 C5.953125,18.6584812 5.96205348,18.4843758 5.97991071,18.328125 L6.85714286,18.140625 C6.86160717,18.140625 6.88950867,18.1350447 6.94084821,18.1238839 C6.99218776,18.1127232 7.02678562,18.1049107 7.04464286,18.1004464 C7.06250009,18.0959821 7.09486584,18.0859376 7.14174107,18.0703125 C7.18861631,18.0546874 7.22209811,18.0401786 7.2421875,18.0267857 C7.26227689,18.0133928 7.28683021,17.9955358 7.31584821,17.9732143 C7.34486622,17.9508927 7.3649553,17.9263394 7.37611607,17.8995536 C7.38727684,17.8727677 7.39285714,17.841518 7.39285714,17.8058036 C7.39285714,17.7343746 7.32366141,17.518975 7.18526786,17.1595982 C7.04687431,16.8002214 6.88616163,16.40402 6.703125,15.9709821 C6.52008837,15.5379443 6.42633931,15.3147322 6.421875,15.3013393 L3.40848214,15.2879464 C3.29241013,15.5468763 3.12165291,15.9832559 2.89620536,16.5970982 C2.6707578,17.2109406 2.55803571,17.5736602 2.55803571,17.6852679 C2.55803571,17.7834826 2.5892854,17.8671872 2.65178571,17.9363839 C2.71428603,18.0055807 2.81138327,18.0602677 2.94308036,18.1004464 C3.07477744,18.1406252 3.18303529,18.1707588 3.26785714,18.1908482 C3.352679,18.2109376 3.47990987,18.2299106 3.64955357,18.2477679 C3.81919728,18.2656251 3.91071422,18.2745536 3.92410714,18.2745536 C3.92857145,18.3593754 3.93080357,18.4888384 3.93080357,18.6629464 C3.93080357,18.7031252 3.92633933,18.7633925 3.91741071,18.84375 C3.65848085,18.84375 3.26897581,18.8214288 2.74888393,18.7767857 C2.22879204,18.7321426 1.83928701,18.7098214 1.58035714,18.7098214 C1.54464268,18.7098214 1.48549148,18.7187499 1.40290179,18.7366071 C1.32031209,18.7544644 1.2723215,18.7633929 1.25892857,18.7633929 C0.901783929,18.8258932 0.482145268,18.8571429 0,18.8571429 Z" id="sh-name"></path>
            </g>
        </g>
    </g>
</svg>