<?xml version="1.0" encoding="UTF-8"?>
<svg width="9px" height="11px" viewBox="0 0 9 11" version="1.1" xmlns="http://www.w3.org/2000/svg" xmlns:xlink="http://www.w3.org/1999/xlink">
    <!-- Generator: Sketch 52.3 (67297) - http://www.bohemiancoding.com/sketch -->
    <title>sh-person</title>
    <desc>Created with Sketch.</desc>
    <g id="7th-Draft" stroke="none" stroke-width="1" fill="none" fill-rule="evenodd">
        <g id="Company-list" transform="translate(-840.000000, -132.000000)" fill="#646C77">
            <g id="Group-4-Copy-2" transform="translate(840.000000, 123.000000)">
                <path d="M8.57142857,18.0825893 C8.57142857,18.5691989 8.43192104,18.9866054 8.15290179,19.3348214 C7.87388253,19.6830375 7.53794839,19.8571429 7.14508929,19.8571429 L1.42633929,19.8571429 C1.03348018,19.8571429 0.697546038,19.6830375 0.418526786,19.3348214 C0.139507533,18.9866054 0,18.5691989 0,18.0825893 C0,17.7031231 0.0189730246,17.3448678 0.0569196429,17.0078125 C0.0948662612,16.6707572 0.165178058,16.3314749 0.267857143,15.9899554 C0.370536228,15.6484358 0.501115279,15.356028 0.659598214,15.1127232 C0.81808115,14.8694184 1.02790048,14.6707597 1.2890625,14.5167411 C1.55022452,14.3627224 1.85044473,14.2857143 2.18973214,14.2857143 C2.7745565,14.8571457 3.47321022,15.1428571 4.28571429,15.1428571 C5.09821835,15.1428571 5.79687208,14.8571457 6.38169643,14.2857143 C6.72098384,14.2857143 7.02120405,14.3627224 7.28236607,14.5167411 C7.54352809,14.6707597 7.75334742,14.8694184 7.91183036,15.1127232 C8.07031329,15.356028 8.20089234,15.6484358 8.30357143,15.9899554 C8.40625051,16.3314749 8.47656231,16.6707572 8.51450893,17.0078125 C8.55245555,17.3448678 8.57142857,17.7031231 8.57142857,18.0825893 Z M6.10044643,10.328125 C6.60491324,10.8281275 6.85714286,11.4330322 6.85714286,12.1428571 C6.85714286,12.8526821 6.6060293,13.4587028 6.10379464,13.9609375 C5.60155999,14.4631722 4.99553926,14.7142857 4.28571429,14.7142857 C3.57588931,14.7142857 2.96986858,14.4631722 2.46763393,13.9609375 C1.96539927,13.4587028 1.71428571,12.8526821 1.71428571,12.1428571 C1.71428571,11.4330322 1.96539927,10.8270114 2.46763393,10.3247768 C2.96986858,9.82254213 3.57588931,9.57142857 4.28571429,9.57142857 C4.99553926,9.57142857 5.60044393,9.82365819 6.10044643,10.328125 Z" id="sh-person"></path>
            </g>
        </g>
    </g>
</svg>