<svg xmlns="http://www.w3.org/2000/svg" width="10" height="10" viewBox="0 0 10 10">
    <path fill="#646C77" fill-rule="evenodd" d="M9.429 8.018c0 .12-.023.278-.067.472a2.66 2.66 0 0 1-.141.459c-.094.223-.366.46-.817.71-.42.227-.835.341-1.246.341-.12 0-.238-.008-.354-.023a2.751 2.751 0 0 1-.385-.084 5.742 5.742 0 0 1-.315-.097c-.07-.025-.193-.07-.372-.138a14.269 14.269 0 0 0-.328-.12 6.065 6.065 0 0 1-1.172-.556c-.567-.353-1.156-.835-1.768-1.446-.611-.612-1.093-1.201-1.446-1.768a6.065 6.065 0 0 1-.556-1.172c-.013-.04-.054-.15-.12-.328a26.261 26.261 0 0 1-.138-.372 5.745 5.745 0 0 1-.097-.315 2.75 2.75 0 0 1-.084-.385A2.657 2.657 0 0 1 0 2.842c0-.411.114-.826.342-1.246.25-.45.486-.723.71-.817a2.66 2.66 0 0 1 .458-.14A2.21 2.21 0 0 1 1.982.57c.063 0 .11.007.14.02.081.027.2.197.356.51.049.084.116.205.2.361.085.156.164.298.235.425.071.128.14.247.208.359l.117.167c.064.094.112.173.144.238a.437.437 0 0 1 .047.19c0 .09-.064.201-.191.335a3.264 3.264 0 0 1-.415.369c-.15.111-.288.23-.416.355-.127.125-.19.227-.19.308 0 .04.01.09.033.15.022.06.041.106.057.138.016.03.047.084.094.16l.077.127c.339.612.727 1.137 1.165 1.574.437.438.962.826 1.574 1.165l.127.077c.076.047.13.078.16.094.032.016.077.035.138.057.06.022.11.033.15.033.08 0 .183-.063.308-.19.125-.128.244-.266.355-.416.112-.15.235-.287.369-.415.134-.127.245-.19.334-.19.063 0 .127.015.191.046.065.032.144.08.238.144l.167.117c.112.067.231.137.359.208.127.071.269.15.425.234.156.085.277.152.362.201.312.157.482.275.508.355.014.031.02.078.02.14z"/>
</svg>
