<?xml version="1.0" encoding="UTF-8"?>
<svg width="153px" height="153px" viewBox="0 0 153 153" version="1.1" xmlns="http://www.w3.org/2000/svg" xmlns:xlink="http://www.w3.org/1999/xlink">
    <!-- Generator: Sketch 49.3 (51167) - http://www.bohemiancoding.com/sketch -->
    <title>signup-sucess</title>
    <desc>Created with Sketch.</desc>
    <defs></defs>
    <g id="Desktop" stroke="none" stroke-width="1" fill="none" fill-rule="evenodd">
        <g id="Get-Started---Confirmation" transform="translate(-644.000000, -168.000000)" fill="#62C87A" fill-rule="nonzero">
            <g id="signup-sucess" transform="translate(647.000000, 171.000000)">
                <path d="M144.5,73.5 C144.5,34.2878904 112.711849,2.5 73.4993974,2.5 C34.287971,2.5 2.5,34.2880704 2.5,73.5 C2.5,112.71193 34.287971,144.5 73.4993974,144.5 C112.711849,144.5 144.5,112.71211 144.5,73.5 Z M149.5,73.5 C149.5,115.473543 115.473264,149.5 73.4993974,149.5 C31.5265437,149.5 -2.5,115.47335 -2.5,73.5 C-2.5,31.5266501 31.5265437,-2.5 73.4993974,-2.5 C115.473264,-2.5 149.5,31.5264574 149.5,73.5 Z" id="Stroke-1"></path>
                <path d="M108.236233,47.2282417 C109.214749,46.2541403 110.797657,46.2577184 111.771758,47.2362335 C112.74586,48.2147486 112.742282,49.797657 111.763766,50.7717583 L61.5372113,100.771758 C60.5618144,101.742755 58.9850421,101.742746 58.0096569,100.771737 L34.2362122,77.1049585 C33.2577088,76.1308454 33.2541497,74.5479369 34.2282628,73.5694335 C35.2023759,72.5909301 36.7852844,72.587371 37.7637878,73.5614841 L59.7734659,95.4724098 L108.236233,47.2282417 Z" id="Stroke-3"></path>
            </g>
        </g>
    </g>
</svg>